%TF.GenerationSoftware,KiCad,Pcbnew,9.0.6*%
%TF.CreationDate,2025-12-31T18:27:44+05:30*%
%TF.ProjectId,praveenclass,70726176-6565-46e6-936c-6173732e6b69,rev?*%
%TF.SameCoordinates,Original*%
%TF.FileFunction,Copper,L1,Top*%
%TF.FilePolarity,Positive*%
%FSLAX46Y46*%
G04 Gerber Fmt 4.6, Leading zero omitted, Abs format (unit mm)*
G04 Created by KiCad (PCBNEW 9.0.6) date 2025-12-31 18:27:44*
%MOMM*%
%LPD*%
G01*
G04 APERTURE LIST*
G04 Aperture macros list*
%AMRoundRect*
0 Rectangle with rounded corners*
0 $1 Rounding radius*
0 $2 $3 $4 $5 $6 $7 $8 $9 X,Y pos of 4 corners*
0 Add a 4 corners polygon primitive as box body*
4,1,4,$2,$3,$4,$5,$6,$7,$8,$9,$2,$3,0*
0 Add four circle primitives for the rounded corners*
1,1,$1+$1,$2,$3*
1,1,$1+$1,$4,$5*
1,1,$1+$1,$6,$7*
1,1,$1+$1,$8,$9*
0 Add four rect primitives between the rounded corners*
20,1,$1+$1,$2,$3,$4,$5,0*
20,1,$1+$1,$4,$5,$6,$7,0*
20,1,$1+$1,$6,$7,$8,$9,0*
20,1,$1+$1,$8,$9,$2,$3,0*%
G04 Aperture macros list end*
%TA.AperFunction,ComponentPad*%
%ADD10C,1.400000*%
%TD*%
%TA.AperFunction,ComponentPad*%
%ADD11RoundRect,0.250000X-0.550000X-0.550000X0.550000X-0.550000X0.550000X0.550000X-0.550000X0.550000X0*%
%TD*%
%TA.AperFunction,ComponentPad*%
%ADD12C,1.600000*%
%TD*%
%TA.AperFunction,ComponentPad*%
%ADD13R,1.050000X1.500000*%
%TD*%
%TA.AperFunction,ComponentPad*%
%ADD14O,1.050000X1.500000*%
%TD*%
%TA.AperFunction,ComponentPad*%
%ADD15R,1.905000X2.000000*%
%TD*%
%TA.AperFunction,ComponentPad*%
%ADD16O,1.905000X2.000000*%
%TD*%
%TA.AperFunction,ComponentPad*%
%ADD17O,1.600000X1.600000*%
%TD*%
%TA.AperFunction,ComponentPad*%
%ADD18R,1.700000X1.700000*%
%TD*%
%TA.AperFunction,ComponentPad*%
%ADD19C,1.700000*%
%TD*%
%TA.AperFunction,Conductor*%
%ADD20C,0.250000*%
%TD*%
G04 APERTURE END LIST*
D10*
%TO.P,R4,2*%
%TO.N,Net-(U2-THR)*%
X155000000Y-36000000D03*
%TO.P,R4,1*%
%TO.N,Net-(U2-DIS)*%
X153100000Y-36000000D03*
%TD*%
D11*
%TO.P,U3,1,GND*%
%TO.N,GND*%
X178695000Y-32690000D03*
D12*
%TO.P,U3,2,+*%
%TO.N,Net-(U3-+)*%
X178695000Y-35230000D03*
%TO.P,U3,3,-*%
%TO.N,Net-(U2-Q)*%
X178695000Y-37770000D03*
%TO.P,U3,4,V-*%
%TO.N,GND*%
X178695000Y-40310000D03*
%TO.P,U3,5,BAL*%
X186315000Y-40310000D03*
%TO.P,U3,6,STRB*%
X186315000Y-37770000D03*
%TO.P,U3,7*%
%TO.N,Net-(R6-Pad1)*%
X186315000Y-35230000D03*
%TO.P,U3,8,V+*%
%TO.N,+12V*%
X186315000Y-32690000D03*
%TD*%
D11*
%TO.P,U2,1,GND*%
%TO.N,GND*%
X134000000Y-33000000D03*
D12*
%TO.P,U2,2,TR*%
%TO.N,Net-(U2-THR)*%
X134000000Y-35540000D03*
%TO.P,U2,3,Q*%
%TO.N,Net-(U2-Q)*%
X134000000Y-38080000D03*
%TO.P,U2,4,R*%
%TO.N,+12V*%
X134000000Y-40620000D03*
%TO.P,U2,5,CV*%
%TO.N,Net-(U2-CV)*%
X141620000Y-40620000D03*
%TO.P,U2,6,THR*%
%TO.N,Net-(U2-THR)*%
X141620000Y-38080000D03*
%TO.P,U2,7,DIS*%
%TO.N,Net-(U2-DIS)*%
X141620000Y-35540000D03*
%TO.P,U2,8,VCC*%
%TO.N,+12V*%
X141620000Y-33000000D03*
%TD*%
D11*
%TO.P,U1,1*%
%TO.N,Net-(U3-+)*%
X69695000Y-51190000D03*
D12*
%TO.P,U1,2,-*%
%TO.N,Net-(U1A--)*%
X69695000Y-53730000D03*
%TO.P,U1,3,+*%
%TO.N,Net-(U1A-+)*%
X69695000Y-56270000D03*
%TO.P,U1,4,V-*%
%TO.N,GND*%
X69695000Y-58810000D03*
%TO.P,U1,5*%
%TO.N,N/C*%
X77315000Y-58810000D03*
%TO.P,U1,6*%
X77315000Y-56270000D03*
%TO.P,U1,7*%
X77315000Y-53730000D03*
%TO.P,U1,8,V+*%
%TO.N,+12V*%
X77315000Y-51190000D03*
%TD*%
D10*
%TO.P,R9,1*%
%TO.N,Net-(Q2-E)*%
X250100000Y-67000000D03*
%TO.P,R9,2*%
%TO.N,Net-(Q1-G)*%
X252000000Y-67000000D03*
%TD*%
%TO.P,R8,1*%
%TO.N,+12V*%
X248100000Y-83000000D03*
%TO.P,R8,2*%
%TO.N,Net-(Q2-C)*%
X250000000Y-83000000D03*
%TD*%
%TO.P,R7,1*%
%TO.N,Net-(C5-Pad1)*%
X218100000Y-94000000D03*
%TO.P,R7,2*%
%TO.N,GND*%
X220000000Y-94000000D03*
%TD*%
%TO.P,R6,1*%
%TO.N,Net-(R6-Pad1)*%
X200600000Y-48000000D03*
%TO.P,R6,2*%
%TO.N,Net-(Q2-B)*%
X202500000Y-48000000D03*
%TD*%
%TO.P,R5,1*%
%TO.N,Net-(U2-DIS)*%
X159600000Y-30500000D03*
%TO.P,R5,2*%
%TO.N,+12V*%
X161500000Y-30500000D03*
%TD*%
%TO.P,R3,1*%
%TO.N,GND*%
X62600000Y-52500000D03*
%TO.P,R3,2*%
%TO.N,Net-(U1A-+)*%
X64500000Y-52500000D03*
%TD*%
%TO.P,R2,1*%
%TO.N,Net-(U1A--)*%
X72500000Y-78000000D03*
%TO.P,R2,2*%
%TO.N,Net-(U3-+)*%
X74400000Y-78000000D03*
%TD*%
%TO.P,R1,1*%
%TO.N,GND*%
X75095000Y-38500000D03*
%TO.P,R1,2*%
%TO.N,Net-(U1A--)*%
X76995000Y-38500000D03*
%TD*%
D13*
%TO.P,Q2,1,C*%
%TO.N,Net-(Q2-C)*%
X221730000Y-64500000D03*
D14*
%TO.P,Q2,2,B*%
%TO.N,Net-(Q2-B)*%
X223000000Y-64500000D03*
%TO.P,Q2,3,E*%
%TO.N,Net-(Q2-E)*%
X224270000Y-64500000D03*
%TD*%
D15*
%TO.P,Q1,1,D*%
%TO.N,+12V*%
X266460000Y-46450000D03*
D16*
%TO.P,Q1,2,G*%
%TO.N,Net-(Q1-G)*%
X269000000Y-46450000D03*
%TO.P,Q1,3,S*%
%TO.N,Net-(Q1-S)*%
X271540000Y-46450000D03*
%TD*%
D12*
%TO.P,L1,1,1*%
%TO.N,Net-(Q1-S)*%
X269000000Y-77500000D03*
D17*
%TO.P,L1,2,2*%
%TO.N,Net-(C5-Pad1)*%
X279000000Y-77500000D03*
%TD*%
D18*
%TO.P,J1,1,Pin_1*%
%TO.N,+12V*%
X56775000Y-48615000D03*
D19*
%TO.P,J1,2,Pin_2*%
%TO.N,GND*%
X54235000Y-48615000D03*
%TD*%
D12*
%TO.P,C5,1*%
%TO.N,Net-(C5-Pad1)*%
X253000000Y-98000000D03*
%TO.P,C5,2*%
%TO.N,GND*%
X255500000Y-98000000D03*
%TD*%
%TO.P,C4,1*%
%TO.N,GND*%
X78750000Y-73000000D03*
%TO.P,C4,2*%
%TO.N,Net-(U2-THR)*%
X81250000Y-73000000D03*
%TD*%
%TO.P,C3,1*%
%TO.N,Net-(U2-CV)*%
X135000000Y-47000000D03*
%TO.P,C3,2*%
%TO.N,GND*%
X137500000Y-47000000D03*
%TD*%
%TO.P,C2,1*%
%TO.N,+12V*%
X123750000Y-32000000D03*
%TO.P,C2,2*%
%TO.N,GND*%
X126250000Y-32000000D03*
%TD*%
%TO.P,C1,1*%
%TO.N,+12V*%
X59750000Y-38000000D03*
%TO.P,C1,2*%
%TO.N,Net-(U1A-+)*%
X62250000Y-38000000D03*
%TD*%
D20*
%TO.N,+12V*%
X71888206Y-79477000D02*
X54354537Y-61943331D01*
X54354537Y-61943331D02*
X54354537Y-51035463D01*
X75011794Y-79477000D02*
X71888206Y-79477000D01*
X79876000Y-74612794D02*
X75011794Y-79477000D01*
X79876000Y-53751000D02*
X79876000Y-74612794D01*
X77315000Y-51190000D02*
X79876000Y-53751000D01*
%TO.N,Net-(U1A-+)*%
X65225000Y-51800000D02*
X65619087Y-52194087D01*
X65619087Y-52194087D02*
X66156587Y-51656587D01*
X65200000Y-51800000D02*
X65225000Y-51800000D01*
X64500000Y-52500000D02*
X65200000Y-51800000D01*
%TO.N,Net-(U1A--)*%
X69157500Y-54267500D02*
X69695000Y-53730000D01*
X58224384Y-54267500D02*
X69157500Y-54267500D01*
X53059000Y-49102116D02*
X58224384Y-54267500D01*
X53059000Y-43098595D02*
X53059000Y-49102116D01*
X76995000Y-38500000D02*
X75369000Y-36874000D01*
X75369000Y-36874000D02*
X59283595Y-36874000D01*
X59283595Y-36874000D02*
X53059000Y-43098595D01*
%TO.N,+12V*%
X135577000Y-32017676D02*
X133531324Y-29972000D01*
X135145324Y-34414000D02*
X135577000Y-33982324D01*
X133531324Y-29972000D02*
X98533000Y-29972000D01*
X126164000Y-34414000D02*
X135145324Y-34414000D01*
X98533000Y-29972000D02*
X77315000Y-51190000D01*
X123750000Y-32000000D02*
X126164000Y-34414000D01*
X135577000Y-33982324D02*
X135577000Y-32017676D01*
%TO.N,GND*%
X78750000Y-75100984D02*
X74824984Y-79026000D01*
X72075016Y-79026000D02*
X69695000Y-76645984D01*
X69695000Y-76645984D02*
X69695000Y-58810000D01*
X78750000Y-73000000D02*
X78750000Y-75100984D01*
X74824984Y-79026000D02*
X72075016Y-79026000D01*
%TO.N,Net-(U2-THR)*%
X135126000Y-33795514D02*
X134958514Y-33963000D01*
X122695630Y-30423000D02*
X133344514Y-30423000D01*
X135126000Y-32204486D02*
X135126000Y-33795514D01*
X81250000Y-71868630D02*
X122695630Y-30423000D01*
X81250000Y-73000000D02*
X81250000Y-71868630D01*
X133344514Y-30423000D02*
X135126000Y-32204486D01*
%TO.N,Net-(U1A--)*%
X72500000Y-56535000D02*
X69695000Y-53730000D01*
X72500000Y-78000000D02*
X72500000Y-56535000D01*
%TO.N,Net-(U3-+)*%
X74400000Y-55895000D02*
X69695000Y-51190000D01*
X74400000Y-78000000D02*
X74400000Y-55895000D01*
%TO.N,GND*%
X58120000Y-52500000D02*
X62600000Y-52500000D01*
X54235000Y-48615000D02*
X58120000Y-52500000D01*
%TO.N,+12V*%
X56775000Y-40975000D02*
X59750000Y-38000000D01*
X56775000Y-48615000D02*
X56775000Y-40975000D01*
%TO.N,GND*%
X75095000Y-43355984D02*
X75095000Y-38500000D01*
X64924984Y-53526000D02*
X75095000Y-43355984D01*
X62600000Y-52500000D02*
X63626000Y-53526000D01*
X63626000Y-53526000D02*
X64924984Y-53526000D01*
%TO.N,Net-(U1A-+)*%
X62250000Y-50250000D02*
X64500000Y-52500000D01*
X62250000Y-38000000D02*
X62250000Y-50250000D01*
%TO.N,Net-(U2-THR)*%
X134730000Y-36270000D02*
X134046000Y-36954000D01*
X134730000Y-36270000D02*
X134000000Y-35540000D01*
%TO.N,GND*%
X134533595Y-48126000D02*
X136374000Y-48126000D01*
X122624000Y-31533595D02*
X122624000Y-36216405D01*
X123283595Y-30874000D02*
X122624000Y-31533595D01*
X136374000Y-48126000D02*
X137500000Y-47000000D01*
X131874000Y-30874000D02*
X123283595Y-30874000D01*
X134000000Y-33000000D02*
X131874000Y-30874000D01*
X122624000Y-36216405D02*
X134533595Y-48126000D01*
%TO.N,Net-(U2-CV)*%
X141380000Y-40620000D02*
X141620000Y-40620000D01*
X135000000Y-47000000D02*
X141380000Y-40620000D01*
%TO.N,+12V*%
X140206000Y-34414000D02*
X140504893Y-34115107D01*
X132874000Y-39494000D02*
X132874000Y-35073595D01*
X133533595Y-34414000D02*
X140206000Y-34414000D01*
X134000000Y-40620000D02*
X132874000Y-39494000D01*
X132874000Y-35073595D02*
X133533595Y-34414000D01*
X132370000Y-40620000D02*
X134000000Y-40620000D01*
X123750000Y-32000000D02*
X132370000Y-40620000D01*
%TO.N,GND*%
X133000000Y-32000000D02*
X134000000Y-33000000D01*
X126250000Y-32000000D02*
X133000000Y-32000000D01*
%TO.N,Net-(U2-THR)*%
X136540000Y-38080000D02*
X134730000Y-36270000D01*
X141620000Y-38080000D02*
X136540000Y-38080000D01*
X155000000Y-36000000D02*
X152920000Y-38080000D01*
X152920000Y-38080000D02*
X141620000Y-38080000D01*
%TO.N,Net-(U2-DIS)*%
X152500000Y-36000000D02*
X152040000Y-35540000D01*
X153100000Y-36000000D02*
X152500000Y-36000000D01*
X152040000Y-35540000D02*
X141620000Y-35540000D01*
X140494000Y-32533595D02*
X140494000Y-33466405D01*
X143027595Y-36000000D02*
X153100000Y-36000000D01*
X142527595Y-30500000D02*
X140494000Y-32533595D01*
X140494000Y-33466405D02*
X143027595Y-36000000D01*
X159600000Y-30500000D02*
X142527595Y-30500000D01*
%TO.N,+12V*%
X159000000Y-33000000D02*
X141620000Y-33000000D01*
X161500000Y-30500000D02*
X159000000Y-33000000D01*
%TO.N,Net-(U3-+)*%
X91411000Y-29474000D02*
X69695000Y-51190000D01*
X178695000Y-35230000D02*
X172939000Y-29474000D01*
X172939000Y-29474000D02*
X91411000Y-29474000D01*
%TO.N,Net-(U2-Q)*%
X177259000Y-39206000D02*
X135126000Y-39206000D01*
X135126000Y-39206000D02*
X134000000Y-38080000D01*
X178695000Y-37770000D02*
X177259000Y-39206000D01*
%TO.N,GND*%
X144190000Y-40310000D02*
X137500000Y-47000000D01*
X178695000Y-40310000D02*
X144190000Y-40310000D01*
%TO.N,Net-(R6-Pad1)*%
X186095000Y-35905000D02*
X186500000Y-35905000D01*
X186095000Y-35450000D02*
X186095000Y-35905000D01*
X186315000Y-35230000D02*
X186095000Y-35450000D01*
%TO.N,+12V*%
X167356000Y-36356000D02*
X161500000Y-30500000D01*
X187441000Y-35696405D02*
X186781405Y-36356000D01*
X187441000Y-33816000D02*
X187441000Y-35696405D01*
X186315000Y-32690000D02*
X187441000Y-33816000D01*
X186781405Y-36356000D02*
X167356000Y-36356000D01*
%TO.N,GND*%
X186315000Y-40310000D02*
X178695000Y-40310000D01*
X186315000Y-37770000D02*
X186315000Y-40310000D01*
X220000000Y-73995000D02*
X186315000Y-40310000D01*
X220000000Y-94000000D02*
X220000000Y-73995000D01*
%TO.N,Net-(R6-Pad1)*%
X185189000Y-32223595D02*
X185189000Y-34104000D01*
X185189000Y-34104000D02*
X186315000Y-35230000D01*
X186781405Y-31564000D02*
X185848595Y-31564000D01*
X200600000Y-48000000D02*
X200600000Y-45382595D01*
X200600000Y-45382595D02*
X186781405Y-31564000D01*
X185848595Y-31564000D02*
X185189000Y-32223595D01*
%TO.N,+12V*%
X187441000Y-36291984D02*
X187441000Y-33816000D01*
X235626016Y-84477000D02*
X187441000Y-36291984D01*
X249973984Y-84477000D02*
X235626016Y-84477000D01*
X251026000Y-83424984D02*
X249973984Y-84477000D01*
X251026000Y-82575016D02*
X251026000Y-83424984D01*
X250424984Y-81974000D02*
X251026000Y-82575016D01*
X249126000Y-81974000D02*
X250424984Y-81974000D01*
X248100000Y-83000000D02*
X249126000Y-81974000D01*
%TO.N,Net-(Q2-B)*%
X207500000Y-48000000D02*
X202500000Y-48000000D01*
X223000000Y-63500000D02*
X207500000Y-48000000D01*
X223000000Y-64500000D02*
X223000000Y-63500000D01*
%TO.N,Net-(Q2-E)*%
X226770000Y-67000000D02*
X224270000Y-64500000D01*
X250100000Y-67000000D02*
X226770000Y-67000000D01*
%TO.N,Net-(Q2-C)*%
X241031000Y-84026000D02*
X221730000Y-64725000D01*
X248974000Y-84026000D02*
X241031000Y-84026000D01*
X250000000Y-83000000D02*
X248974000Y-84026000D01*
X221730000Y-64725000D02*
X221730000Y-64500000D01*
%TO.N,Net-(Q1-G)*%
X265181500Y-45124000D02*
X252000000Y-58305500D01*
X267674000Y-45124000D02*
X265181500Y-45124000D01*
X252000000Y-58305500D02*
X252000000Y-67000000D01*
X269000000Y-46450000D02*
X267674000Y-45124000D01*
%TO.N,+12V*%
X266460000Y-64640000D02*
X248100000Y-83000000D01*
X266460000Y-46450000D02*
X266460000Y-64640000D01*
%TO.N,Net-(Q1-S)*%
X271540000Y-46450000D02*
X271540000Y-74960000D01*
X271540000Y-74960000D02*
X269000000Y-77500000D01*
%TO.N,GND*%
X221775016Y-99126000D02*
X254374000Y-99126000D01*
X217074000Y-93575016D02*
X217074000Y-94424984D01*
X254374000Y-99126000D02*
X255500000Y-98000000D01*
X217675016Y-92974000D02*
X217074000Y-93575016D01*
X220000000Y-94000000D02*
X218974000Y-92974000D01*
X218974000Y-92974000D02*
X217675016Y-92974000D01*
X217074000Y-94424984D02*
X221775016Y-99126000D01*
%TO.N,Net-(C5-Pad1)*%
X253000000Y-98000000D02*
X222100000Y-98000000D01*
X222100000Y-98000000D02*
X218100000Y-94000000D01*
X273500000Y-77500000D02*
X253000000Y-98000000D01*
X279000000Y-77500000D02*
X273500000Y-77500000D01*
%TD*%
D10*
%TO.P,R4,2*%
%TO.N,Net-(U2-THR)*%
X155000000Y-36000000D03*
%TO.P,R4,1*%
%TO.N,Net-(U2-DIS)*%
X153100000Y-36000000D03*
%TD*%
D11*
%TO.P,U3,1,GND*%
%TO.N,GND*%
X178695000Y-32690000D03*
D12*
%TO.P,U3,2,+*%
%TO.N,Net-(U3-+)*%
X178695000Y-35230000D03*
%TO.P,U3,3,-*%
%TO.N,Net-(U2-Q)*%
X178695000Y-37770000D03*
%TO.P,U3,4,V-*%
%TO.N,GND*%
X178695000Y-40310000D03*
%TO.P,U3,5,BAL*%
X186315000Y-40310000D03*
%TO.P,U3,6,STRB*%
X186315000Y-37770000D03*
%TO.P,U3,7*%
%TO.N,Net-(R6-Pad1)*%
X186315000Y-35230000D03*
%TO.P,U3,8,V+*%
%TO.N,+12V*%
X186315000Y-32690000D03*
%TD*%
D11*
%TO.P,U2,1,GND*%
%TO.N,GND*%
X134000000Y-33000000D03*
D12*
%TO.P,U2,2,TR*%
%TO.N,Net-(U2-THR)*%
X134000000Y-35540000D03*
%TO.P,U2,3,Q*%
%TO.N,Net-(U2-Q)*%
X134000000Y-38080000D03*
%TO.P,U2,4,R*%
%TO.N,+12V*%
X134000000Y-40620000D03*
%TO.P,U2,5,CV*%
%TO.N,Net-(U2-CV)*%
X141620000Y-40620000D03*
%TO.P,U2,6,THR*%
%TO.N,Net-(U2-THR)*%
X141620000Y-38080000D03*
%TO.P,U2,7,DIS*%
%TO.N,Net-(U2-DIS)*%
X141620000Y-35540000D03*
%TO.P,U2,8,VCC*%
%TO.N,+12V*%
X141620000Y-33000000D03*
%TD*%
D11*
%TO.P,U1,1*%
%TO.N,Net-(U3-+)*%
X69695000Y-51190000D03*
D12*
%TO.P,U1,2,-*%
%TO.N,Net-(U1A--)*%
X69695000Y-53730000D03*
%TO.P,U1,3,+*%
%TO.N,Net-(U1A-+)*%
X69695000Y-56270000D03*
%TO.P,U1,4,V-*%
%TO.N,GND*%
X69695000Y-58810000D03*
%TO.P,U1,5*%
%TO.N,N/C*%
X77315000Y-58810000D03*
%TO.P,U1,6*%
X77315000Y-56270000D03*
%TO.P,U1,7*%
X77315000Y-53730000D03*
%TO.P,U1,8,V+*%
%TO.N,+12V*%
X77315000Y-51190000D03*
%TD*%
D10*
%TO.P,R9,1*%
%TO.N,Net-(Q2-E)*%
X250100000Y-67000000D03*
%TO.P,R9,2*%
%TO.N,Net-(Q1-G)*%
X252000000Y-67000000D03*
%TD*%
%TO.P,R8,1*%
%TO.N,+12V*%
X248100000Y-83000000D03*
%TO.P,R8,2*%
%TO.N,Net-(Q2-C)*%
X250000000Y-83000000D03*
%TD*%
%TO.P,R7,1*%
%TO.N,Net-(C5-Pad1)*%
X218100000Y-94000000D03*
%TO.P,R7,2*%
%TO.N,GND*%
X220000000Y-94000000D03*
%TD*%
%TO.P,R6,1*%
%TO.N,Net-(R6-Pad1)*%
X200600000Y-48000000D03*
%TO.P,R6,2*%
%TO.N,Net-(Q2-B)*%
X202500000Y-48000000D03*
%TD*%
%TO.P,R5,1*%
%TO.N,Net-(U2-DIS)*%
X159600000Y-30500000D03*
%TO.P,R5,2*%
%TO.N,+12V*%
X161500000Y-30500000D03*
%TD*%
%TO.P,R3,1*%
%TO.N,GND*%
X62600000Y-52500000D03*
%TO.P,R3,2*%
%TO.N,Net-(U1A-+)*%
X64500000Y-52500000D03*
%TD*%
%TO.P,R2,1*%
%TO.N,Net-(U1A--)*%
X72500000Y-78000000D03*
%TO.P,R2,2*%
%TO.N,Net-(U3-+)*%
X74400000Y-78000000D03*
%TD*%
%TO.P,R1,1*%
%TO.N,GND*%
X75095000Y-38500000D03*
%TO.P,R1,2*%
%TO.N,Net-(U1A--)*%
X76995000Y-38500000D03*
%TD*%
D13*
%TO.P,Q2,1,C*%
%TO.N,Net-(Q2-C)*%
X221730000Y-64500000D03*
D14*
%TO.P,Q2,2,B*%
%TO.N,Net-(Q2-B)*%
X223000000Y-64500000D03*
%TO.P,Q2,3,E*%
%TO.N,Net-(Q2-E)*%
X224270000Y-64500000D03*
%TD*%
D15*
%TO.P,Q1,1,D*%
%TO.N,+12V*%
X266460000Y-46450000D03*
D16*
%TO.P,Q1,2,G*%
%TO.N,Net-(Q1-G)*%
X269000000Y-46450000D03*
%TO.P,Q1,3,S*%
%TO.N,Net-(Q1-S)*%
X271540000Y-46450000D03*
%TD*%
D12*
%TO.P,L1,1,1*%
%TO.N,Net-(Q1-S)*%
X269000000Y-77500000D03*
D17*
%TO.P,L1,2,2*%
%TO.N,Net-(C5-Pad1)*%
X279000000Y-77500000D03*
%TD*%
D18*
%TO.P,J1,1,Pin_1*%
%TO.N,+12V*%
X56775000Y-48615000D03*
D19*
%TO.P,J1,2,Pin_2*%
%TO.N,GND*%
X54235000Y-48615000D03*
%TD*%
D12*
%TO.P,C5,1*%
%TO.N,Net-(C5-Pad1)*%
X253000000Y-98000000D03*
%TO.P,C5,2*%
%TO.N,GND*%
X255500000Y-98000000D03*
%TD*%
%TO.P,C4,1*%
%TO.N,GND*%
X78750000Y-73000000D03*
%TO.P,C4,2*%
%TO.N,Net-(U2-THR)*%
X81250000Y-73000000D03*
%TD*%
%TO.P,C3,1*%
%TO.N,Net-(U2-CV)*%
X135000000Y-47000000D03*
%TO.P,C3,2*%
%TO.N,GND*%
X137500000Y-47000000D03*
%TD*%
%TO.P,C2,1*%
%TO.N,+12V*%
X123750000Y-32000000D03*
%TO.P,C2,2*%
%TO.N,GND*%
X126250000Y-32000000D03*
%TD*%
%TO.P,C1,1*%
%TO.N,+12V*%
X59750000Y-38000000D03*
%TO.P,C1,2*%
%TO.N,Net-(U1A-+)*%
X62250000Y-38000000D03*
%TD*%
M02*
