%TF.GenerationSoftware,KiCad,Pcbnew,9.0.6*%
%TF.CreationDate,2025-12-31T18:27:44+05:30*%
%TF.ProjectId,praveenclass,70726176-6565-46e6-936c-6173732e6b69,rev?*%
%TF.SameCoordinates,Original*%
%TF.FileFunction,Paste,Bot*%
%TF.FilePolarity,Positive*%
%FSLAX46Y46*%
G04 Gerber Fmt 4.6, Leading zero omitted, Abs format (unit mm)*
G04 Created by KiCad (PCBNEW 9.0.6) date 2025-12-31 18:27:44*
%MOMM*%
%LPD*%
G01*
G04 APERTURE LIST*
G04 Aperture macros list*
%AMRoundRect*
0 Rectangle with rounded corners*
0 $1 Rounding radius*
0 $2 $3 $4 $5 $6 $7 $8 $9 X,Y pos of 4 corners*
0 Add a 4 corners polygon primitive as box body*
4,1,4,$2,$3,$4,$5,$6,$7,$8,$9,$2,$3,0*
0 Add four circle primitives for the rounded corners*
1,1,$1+$1,$2,$3*
1,1,$1+$1,$4,$5*
1,1,$1+$1,$6,$7*
1,1,$1+$1,$8,$9*
0 Add four rect primitives between the rounded corners*
20,1,$1+$1,$2,$3,$4,$5,0*
20,1,$1+$1,$4,$5,$6,$7,0*
20,1,$1+$1,$6,$7,$8,$9,0*
20,1,$1+$1,$8,$9,$2,$3,0*%
G04 Aperture macros list end*
%TA.AperFunction,ComponentPad*%
%ADD10C,1.400000*%
%TD*%
%TA.AperFunction,ComponentPad*%
%ADD11RoundRect,0.250000X-0.550000X-0.550000X0.550000X-0.550000X0.550000X0.550000X-0.550000X0.550000X0*%
%TD*%
%TA.AperFunction,ComponentPad*%
%ADD12C,1.600000*%
%TD*%
%TA.AperFunction,ComponentPad*%
%ADD13R,1.050000X1.500000*%
%TD*%
%TA.AperFunction,ComponentPad*%
%ADD14O,1.050000X1.500000*%
%TD*%
%TA.AperFunction,ComponentPad*%
%ADD15R,1.905000X2.000000*%
%TD*%
%TA.AperFunction,ComponentPad*%
%ADD16O,1.905000X2.000000*%
%TD*%
%TA.AperFunction,ComponentPad*%
%ADD17O,1.600000X1.600000*%
%TD*%
%TA.AperFunction,ComponentPad*%
%ADD18R,1.700000X1.700000*%
%TD*%
%TA.AperFunction,ComponentPad*%
%ADD19C,1.700000*%
%TD*%
G04 APERTURE END LIST*
D10*
%TO.P,R4,2*%
%TO.N,Net-(U2-THR)*%
X155000000Y-36000000D03*
%TO.P,R4,1*%
%TO.N,Net-(U2-DIS)*%
X153100000Y-36000000D03*
%TD*%
D11*
%TO.P,U3,1,GND*%
%TO.N,GND*%
X178695000Y-32690000D03*
D12*
%TO.P,U3,2,+*%
%TO.N,Net-(U3-+)*%
X178695000Y-35230000D03*
%TO.P,U3,3,-*%
%TO.N,Net-(U2-Q)*%
X178695000Y-37770000D03*
%TO.P,U3,4,V-*%
%TO.N,GND*%
X178695000Y-40310000D03*
%TO.P,U3,5,BAL*%
X186315000Y-40310000D03*
%TO.P,U3,6,STRB*%
X186315000Y-37770000D03*
%TO.P,U3,7*%
%TO.N,Net-(R6-Pad1)*%
X186315000Y-35230000D03*
%TO.P,U3,8,V+*%
%TO.N,+12V*%
X186315000Y-32690000D03*
%TD*%
D11*
%TO.P,U2,1,GND*%
%TO.N,GND*%
X134000000Y-33000000D03*
D12*
%TO.P,U2,2,TR*%
%TO.N,Net-(U2-THR)*%
X134000000Y-35540000D03*
%TO.P,U2,3,Q*%
%TO.N,Net-(U2-Q)*%
X134000000Y-38080000D03*
%TO.P,U2,4,R*%
%TO.N,+12V*%
X134000000Y-40620000D03*
%TO.P,U2,5,CV*%
%TO.N,Net-(U2-CV)*%
X141620000Y-40620000D03*
%TO.P,U2,6,THR*%
%TO.N,Net-(U2-THR)*%
X141620000Y-38080000D03*
%TO.P,U2,7,DIS*%
%TO.N,Net-(U2-DIS)*%
X141620000Y-35540000D03*
%TO.P,U2,8,VCC*%
%TO.N,+12V*%
X141620000Y-33000000D03*
%TD*%
D11*
%TO.P,U1,1*%
%TO.N,Net-(U3-+)*%
X69695000Y-51190000D03*
D12*
%TO.P,U1,2,-*%
%TO.N,Net-(U1A--)*%
X69695000Y-53730000D03*
%TO.P,U1,3,+*%
%TO.N,Net-(U1A-+)*%
X69695000Y-56270000D03*
%TO.P,U1,4,V-*%
%TO.N,GND*%
X69695000Y-58810000D03*
%TO.P,U1,5*%
%TO.N,N/C*%
X77315000Y-58810000D03*
%TO.P,U1,6*%
X77315000Y-56270000D03*
%TO.P,U1,7*%
X77315000Y-53730000D03*
%TO.P,U1,8,V+*%
%TO.N,+12V*%
X77315000Y-51190000D03*
%TD*%
D10*
%TO.P,R9,1*%
%TO.N,Net-(Q2-E)*%
X250100000Y-67000000D03*
%TO.P,R9,2*%
%TO.N,Net-(Q1-G)*%
X252000000Y-67000000D03*
%TD*%
%TO.P,R8,1*%
%TO.N,+12V*%
X248100000Y-83000000D03*
%TO.P,R8,2*%
%TO.N,Net-(Q2-C)*%
X250000000Y-83000000D03*
%TD*%
%TO.P,R7,1*%
%TO.N,Net-(C5-Pad1)*%
X218100000Y-94000000D03*
%TO.P,R7,2*%
%TO.N,GND*%
X220000000Y-94000000D03*
%TD*%
%TO.P,R6,1*%
%TO.N,Net-(R6-Pad1)*%
X200600000Y-48000000D03*
%TO.P,R6,2*%
%TO.N,Net-(Q2-B)*%
X202500000Y-48000000D03*
%TD*%
%TO.P,R5,1*%
%TO.N,Net-(U2-DIS)*%
X159600000Y-30500000D03*
%TO.P,R5,2*%
%TO.N,+12V*%
X161500000Y-30500000D03*
%TD*%
%TO.P,R3,1*%
%TO.N,GND*%
X62600000Y-52500000D03*
%TO.P,R3,2*%
%TO.N,Net-(U1A-+)*%
X64500000Y-52500000D03*
%TD*%
%TO.P,R2,1*%
%TO.N,Net-(U1A--)*%
X72500000Y-78000000D03*
%TO.P,R2,2*%
%TO.N,Net-(U3-+)*%
X74400000Y-78000000D03*
%TD*%
%TO.P,R1,1*%
%TO.N,GND*%
X75095000Y-38500000D03*
%TO.P,R1,2*%
%TO.N,Net-(U1A--)*%
X76995000Y-38500000D03*
%TD*%
D13*
%TO.P,Q2,1,C*%
%TO.N,Net-(Q2-C)*%
X221730000Y-64500000D03*
D14*
%TO.P,Q2,2,B*%
%TO.N,Net-(Q2-B)*%
X223000000Y-64500000D03*
%TO.P,Q2,3,E*%
%TO.N,Net-(Q2-E)*%
X224270000Y-64500000D03*
%TD*%
D15*
%TO.P,Q1,1,D*%
%TO.N,+12V*%
X266460000Y-46450000D03*
D16*
%TO.P,Q1,2,G*%
%TO.N,Net-(Q1-G)*%
X269000000Y-46450000D03*
%TO.P,Q1,3,S*%
%TO.N,Net-(Q1-S)*%
X271540000Y-46450000D03*
%TD*%
D12*
%TO.P,L1,1,1*%
%TO.N,Net-(Q1-S)*%
X269000000Y-77500000D03*
D17*
%TO.P,L1,2,2*%
%TO.N,Net-(C5-Pad1)*%
X279000000Y-77500000D03*
%TD*%
D18*
%TO.P,J1,1,Pin_1*%
%TO.N,+12V*%
X56775000Y-48615000D03*
D19*
%TO.P,J1,2,Pin_2*%
%TO.N,GND*%
X54235000Y-48615000D03*
%TD*%
D12*
%TO.P,C5,1*%
%TO.N,Net-(C5-Pad1)*%
X253000000Y-98000000D03*
%TO.P,C5,2*%
%TO.N,GND*%
X255500000Y-98000000D03*
%TD*%
%TO.P,C4,1*%
%TO.N,GND*%
X78750000Y-73000000D03*
%TO.P,C4,2*%
%TO.N,Net-(U2-THR)*%
X81250000Y-73000000D03*
%TD*%
%TO.P,C3,1*%
%TO.N,Net-(U2-CV)*%
X135000000Y-47000000D03*
%TO.P,C3,2*%
%TO.N,GND*%
X137500000Y-47000000D03*
%TD*%
%TO.P,C2,1*%
%TO.N,+12V*%
X123750000Y-32000000D03*
%TO.P,C2,2*%
%TO.N,GND*%
X126250000Y-32000000D03*
%TD*%
%TO.P,C1,1*%
%TO.N,+12V*%
X59750000Y-38000000D03*
%TO.P,C1,2*%
%TO.N,Net-(U1A-+)*%
X62250000Y-38000000D03*
%TD*%
M02*
